<svg xmlns="http://www.w3.org/2000/svg" viewBox="0 0 366.96 162.35"><defs><style>.cls-1{fill:#0083be;}</style></defs><g id="Calque_3" data-name="Calque 3"><path class="cls-1" d="M150.56,282.72H95.94a15.85,15.85,0,0,1,4.76-7,41.31,41.31,0,0,1,7.82-5.36l24-13.06a61.51,61.51,0,0,0,5.8-3.51,61.56,61.56,0,0,1-.56-8.07,60.23,60.23,0,0,1,13.86-38.48,31.84,31.84,0,0,0-6.8-7.6,43.87,43.87,0,0,0-13.64-7.37,56,56,0,0,0-18.3-2.76,55.38,55.38,0,0,0-18.69,2.93,42.19,42.19,0,0,0-13.83,7.87,33.84,33.84,0,0,0-8.58,11.38,32,32,0,0,0-3,13.47,28.81,28.81,0,0,0,.19,3.35c.12,1.12.25,2.07.38,2.85l22.12,1.34c-.13-.89-.26-1.82-.38-2.76a21.6,21.6,0,0,1,5.15-17.08q5.33-5.78,16.21-5.77a26.33,26.33,0,0,1,9,1.42,19.24,19.24,0,0,1,6.49,3.77A16,16,0,0,1,132,217.6a15.53,15.53,0,0,1,1.33,6.36,17.88,17.88,0,0,1-3.72,10.88q-3.72,5-12.11,9.54L97.08,255.6a74.62,74.62,0,0,0-13.64,9.29,45.93,45.93,0,0,0-9,10.55,41.28,41.28,0,0,0-5,11.8,62.19,62.19,0,0,0-1.72,13.22h89.44V289.89c-.57-.53-1.13-1.05-1.68-1.6A59.83,59.83,0,0,1,150.56,282.72Z" transform="translate(-67.66 -138.5)"/><path class="cls-1" d="M336.63,287.4a61.88,61.88,0,0,1-4.22-4.68H276.94a15.85,15.85,0,0,1,4.76-7,41.31,41.31,0,0,1,7.82-5.36l24-13.06a60.94,60.94,0,0,0,6-3.68,60.94,60.94,0,0,1-.64-8.79,60.21,60.21,0,0,1,13.44-38,32.13,32.13,0,0,0-6.54-7.2,43.87,43.87,0,0,0-13.64-7.37,56,56,0,0,0-18.3-2.76,55.38,55.38,0,0,0-18.69,2.93,42.19,42.19,0,0,0-13.83,7.87,33.84,33.84,0,0,0-8.58,11.38,33.44,33.44,0,0,0-1.77,4.8,58.43,58.43,0,0,1,6,15.27l15.56.94c-.13-.89-.26-1.82-.38-2.76a21.6,21.6,0,0,1,5.15-17.08q5.32-5.78,16.21-5.77a26.33,26.33,0,0,1,9.05,1.42,19.24,19.24,0,0,1,6.49,3.77A16,16,0,0,1,313,217.6a15.53,15.53,0,0,1,1.33,6.36,17.88,17.88,0,0,1-3.72,10.88q-3.72,5-12.11,9.54l-20.4,11.22a74.62,74.62,0,0,0-13.64,9.29,45.93,45.93,0,0,0-9.05,10.55,41.28,41.28,0,0,0-5,11.8,62.19,62.19,0,0,0-1.72,13.22h89.44V288.84C337.64,288.37,337.12,287.89,336.63,287.4Z" transform="translate(-67.66 -138.5)"/><path class="cls-1" d="M324,244.79a55.36,55.36,0,0,1,54.42-55.37c31.21-.39,56.32,25.23,56.17,55.15a55.3,55.3,0,0,1-110.59.22Zm11.29-.26a44,44,0,1,0,44.21-43.84A44,44,0,0,0,335.33,244.53Z" transform="translate(-67.66 -138.5)"/><rect class="cls-1" x="311.56" y="67.29" width="1.26" height="23.5" rx="0.62"/><path class="cls-1" d="M371.3,218.27v-1a76.91,76.91,0,0,0-.37-7.79l0-.2.11-.17c2.44-3.66,8.57-2.17,8.83-2.11l.43.11v9l-.67-.14c-3.48-.7-7.41,1.77-7.45,1.8Zm.77-8.72c.07.74.31,3.37.35,6.74a12.8,12.8,0,0,1,6.74-1.56V208C377.84,207.74,373.81,207.22,372.07,209.55Z" transform="translate(-67.66 -138.5)"/><path class="cls-1" d="M394.22,242.2a12.25,12.25,0,0,0,4.24-3.93c.09-.18-18.81-17.19-18.81-17.19s-18.82,17-18.82,17.19a12.22,12.22,0,0,0,4.25,3.93v23.24c-7.24-1.07-14.21-2.05-20.23-2.81a38.94,38.94,0,0,0,34.4,21h.09A38.73,38.73,0,0,0,407,272.06c-3.75-.62-8.07-1.33-12.73-2.08Zm-6.15,31.1h-3.61v-5.16s0-2.33,1.8-2.33,1.81,2.33,1.81,2.33Zm0-15.06h-3.61v-5.16s0-2.33,1.8-2.33,1.81,2.33,1.81,2.33Z" transform="translate(-67.66 -138.5)"/><g id="plone"><path class="cls-1" d="M142.89,245.69a55.36,55.36,0,0,1,54.42-55.37c31.21-.4,56.32,25.23,56.16,55.14a55.29,55.29,0,0,1-110.58.23Zm11.29-.27a44,44,0,1,0,44.21-43.83A44,44,0,0,0,154.18,245.42Z" transform="translate(-67.66 -138.5)"/><path class="cls-1" d="M227.31,245.83a11.94,11.94,0,1,1-11.87-12.21A12.07,12.07,0,0,1,227.31,245.83Z" transform="translate(-67.66 -138.5)"/><path class="cls-1" d="M191.07,281.46a11.9,11.9,0,1,1-.18-23.79,11.9,11.9,0,1,1,.18,23.79Z" transform="translate(-67.66 -138.5)"/><path class="cls-1" d="M191,233.61a11.71,11.71,0,0,1-11.85-12.09,11.91,11.91,0,0,1,11.94-11.79A12,12,0,0,1,203,221.91,11.85,11.85,0,0,1,191,233.61Z" transform="translate(-67.66 -138.5)"/></g></g><g id="Calque_4" data-name="Calque 4"><path class="cls-1" d="M67.68,158c0-5.75,0-11.49,0-17.24,0-.62.15-.82.8-.82,4.71,0,9.42,0,14.12.09a10.64,10.64,0,0,1,7.83,3.6c4.49,4.94,3.67,15.81-6,17.91a13,13,0,0,1-3,.31c-2.47,0-4.94,0-7.41,0-.74,0-.86.23-.86.9,0,4.18,0,8.36,0,12.54,0,.57-.1.81-.74.78-1.37,0-2.73,0-4.09,0-.61,0-.72-.19-.71-.74C67.69,169.56,67.68,163.79,67.68,158Zm5.52-7.11c0,1.79,0,3.58,0,5.38,0,.43.07.64.58.63,2.54,0,5.08,0,7.63,0a5.9,5.9,0,0,0,5.72-8.28,5.19,5.19,0,0,0-5-3.62c-2.81-.17-5.65-.07-8.47-.11-.53,0-.49.3-.49.65C73.2,147.32,73.2,149.11,73.2,150.91Z" transform="translate(-67.66 -138.5)"/><path class="cls-1" d="M177.9,164.69c-2.57,0-5.14,0-7.71,0-.55,0-.69.15-.67.69.12,4.45,3.45,7.14,7.95,6.47a7.52,7.52,0,0,0,4.4-2.16c.36-.37.59-.33.93,0,.78.78,1.58,1.54,2.41,2.26.37.32.35.48,0,.82-3,3-6.75,3.91-10.89,3.51a10.09,10.09,0,0,1-7.14-3.47,11.7,11.7,0,0,1-2.5-5.86,20.33,20.33,0,0,1,.52-9.43,10.11,10.11,0,0,1,10.42-7.47,10.21,10.21,0,0,1,10.07,8,23,23,0,0,1,.54,6.25c0,.51-.32.43-.62.43Zm-2.6-3.58h4.09c1.86,0,1.86,0,1.54-1.85a5.68,5.68,0,0,0-7.53-4.6c-2.35.79-3.78,3-3.88,5.81,0,.49.1.66.62.65C171.86,161.09,173.58,161.11,175.3,161.11Z" transform="translate(-67.66 -138.5)"/><path class="cls-1" d="M133.77,162.92a23.69,23.69,0,0,1-.55,5.89,9.92,9.92,0,0,1-9.25,7.53c-4.1.23-7.54-1-9.88-4.6a11.16,11.16,0,0,1-1.62-4.92,27.08,27.08,0,0,1,.28-8.8c1.2-5.43,5.77-8.42,11.29-7.91s8.9,4,9.54,9.45C133.73,160.79,133.71,162,133.77,162.92Zm-5.16.31a22,22,0,0,0-.3-4,5.14,5.14,0,0,0-5.08-4.58,5,5,0,0,0-5.36,4.11,21.29,21.29,0,0,0,0,8.78,5.28,5.28,0,0,0,10.31.09A18.28,18.28,0,0,0,128.61,163.23Z" transform="translate(-67.66 -138.5)"/><path class="cls-1" d="M143.73,152.88a9.7,9.7,0,0,1,9.63-2.45c3.75.95,6.07,4.06,6.12,8.24.07,5.07,0,10.15,0,15.23,0,.69.23,1.61-.12,2s-1.35.12-2.06.15-1.35,0-2,0-1-.12-1-.94c0-4.77,0-9.54,0-14.31a10.33,10.33,0,0,0-.24-2.36,4.72,4.72,0,0,0-4.94-3.79,4.94,4.94,0,0,0-5.11,3.72,10.51,10.51,0,0,0-.26,2.68q0,7.11,0,14.23c0,.6-.14.79-.76.77-1.29,0-2.57,0-3.86,0-.43,0-.57-.11-.57-.56q0-12.31,0-24.62c0-.47.17-.56.59-.55,1.31,0,2.62,0,3.93,0,.51,0,.61.18.59.63S143.73,152.13,143.73,152.88Z" transform="translate(-67.66 -138.5)"/><path class="cls-1" d="M102.85,154.84v13.23c0,.28,0,.57,0,.85.07,1.92.86,2.69,2.77,2.72.59,0,1.18,0,1.77,0,.38,0,.56.09.55.51,0,1.15,0,2.31,0,3.46,0,.24,0,.47-.34.46-1.82-.06-3.66.22-5.44-.36a6.23,6.23,0,0,1-4.39-5.41,11.36,11.36,0,0,1-.11-1.84c0-9.21,0-18.42,0-27.62,0-.71.19-.92.89-.89a35,35,0,0,0,3.55,0c.67,0,.79.21.78.82C102.84,145.46,102.85,150.15,102.85,154.84Z" transform="translate(-67.66 -138.5)"/><path class="cls-1" d="M195,148a2.7,2.7,0,1,1-5.4,0,2.7,2.7,0,0,1,5.4,0Zm-2.69-2.3A2.3,2.3,0,0,0,190,148a2.29,2.29,0,1,0,4.58,0A2.3,2.3,0,0,0,192.3,145.74Z" transform="translate(-67.66 -138.5)"/><path class="cls-1" d="M191.15,148v-.38c0-1.21.34-1.46,1.54-1.16.61.15,1,.89.57,1.3s-.34.84-.06,1.29c.09.15.35.37.12.52s-.45-.07-.57-.32-.25-.45-.34-.69a.44.44,0,0,0-.56-.27c-.26,0-.18.26-.21.43s.2.84-.22.84-.2-.56-.26-.87A4,4,0,0,1,191.15,148Zm1-.16c.39,0,.72,0,.7-.49s-.37-.46-.71-.49-.53.12-.53.52S191.84,147.93,192.17,147.88Z" transform="translate(-67.66 -138.5)"/><path class="cls-1" d="M235.82,164.7l0,.15a11.39,11.39,0,0,1-3.16,8.57,11.72,11.72,0,0,1-8.79,3.31,11.47,11.47,0,0,1-9.12-4.09,15.52,15.52,0,0,1-3.51-10.47v-6.61a15.7,15.7,0,0,1,3.47-10.46,11.22,11.22,0,0,1,9-4.11q5.67,0,8.94,3.23a11.39,11.39,0,0,1,3.18,8.7l0,.14h-5.17a8,8,0,0,0-1.75-5.47,6.59,6.59,0,0,0-5.16-2,6,6,0,0,0-5.21,2.81,12.26,12.26,0,0,0-1.92,7.06v6.65a12.09,12.09,0,0,0,2,7.1,6.15,6.15,0,0,0,5.31,2.82,6.4,6.4,0,0,0,5-1.93,7.9,7.9,0,0,0,1.72-5.45Z" transform="translate(-67.66 -138.5)"/><path class="cls-1" d="M238.61,163.08a14.84,14.84,0,0,1,2.91-9.45,10.52,10.52,0,0,1,16,0,14.71,14.71,0,0,1,2.92,9.45v.5a14.79,14.79,0,0,1-2.92,9.5,10.59,10.59,0,0,1-16,0,14.78,14.78,0,0,1-2.91-9.47Zm5.35.49a12.29,12.29,0,0,0,1.36,6.15,4.93,4.93,0,0,0,8.41,0,12,12,0,0,0,1.41-6.15v-.5a11.82,11.82,0,0,0-1.41-6.08,4.88,4.88,0,0,0-8.41,0,12.21,12.21,0,0,0-1.36,6.08Z" transform="translate(-67.66 -138.5)"/><path class="cls-1" d="M269.16,150.41l.3,3.72A8.92,8.92,0,0,1,272.4,151a7.35,7.35,0,0,1,4-1.11,7.2,7.2,0,0,1,5.8,2.45q2.08,2.44,2.08,7.62v16.23h-5.35V160.05a6.14,6.14,0,0,0-1.11-4.14,4.31,4.31,0,0,0-3.37-1.23,5.26,5.26,0,0,0-2.8.75,6,6,0,0,0-2,2.07v18.73h-5.35V150.41Z" transform="translate(-67.66 -138.5)"/><path class="cls-1" d="M290.77,176.23V154.71h-3.64v-4.3h3.64v-3a9.33,9.33,0,0,1,2.14-6.58,7.82,7.82,0,0,1,6-2.32,10.48,10.48,0,0,1,1.56.13c.53.09,1.12.22,1.78.37l-.55,4.49c-.29-.06-.62-.12-1-.17a10.3,10.3,0,0,0-1.15-.07,3.15,3.15,0,0,0-2.61,1.08,4.76,4.76,0,0,0-.87,3.07v3H301v4.3h-4.84v21.52Z" transform="translate(-67.66 -138.5)"/><path class="cls-1" d="M314.25,176.73a10,10,0,0,1-8.07-3.59,13.91,13.91,0,0,1-3-9.22v-1a14.42,14.42,0,0,1,3-9.34,9.18,9.18,0,0,1,7.47-3.69,9,9,0,0,1,7.38,3.16,13.09,13.09,0,0,1,2.56,8.49V165H308.72l0,.12a8.54,8.54,0,0,0,1.66,5,5.08,5.08,0,0,0,4.24,2,10.62,10.62,0,0,0,3.69-.58,11.77,11.77,0,0,0,3-1.64l1.72,3.8a10.9,10.9,0,0,1-3.57,2.18A13.8,13.8,0,0,1,314.25,176.73Zm-.62-22.14a3.9,3.9,0,0,0-3.26,1.7,8.77,8.77,0,0,0-1.58,4.33l0,.12h9.44v-.59a6.53,6.53,0,0,0-1.15-4A4.06,4.06,0,0,0,313.63,154.59Z" transform="translate(-67.66 -138.5)"/><path class="cls-1" d="M338.94,155.64l-2.29-.1a4.51,4.51,0,0,0-2.61.72,4.56,4.56,0,0,0-1.62,2v17.95h-5.34V150.41H332l.35,3.75a8.28,8.28,0,0,1,2.32-3.11,5.18,5.18,0,0,1,3.27-1.12,4.29,4.29,0,0,1,.9.09,5.07,5.07,0,0,1,.77.2Z" transform="translate(-67.66 -138.5)"/><path class="cls-1" d="M352.07,176.73a10,10,0,0,1-8.06-3.59,13.91,13.91,0,0,1-3-9.22v-1a14.42,14.42,0,0,1,3-9.34,9.18,9.18,0,0,1,7.47-3.69,9,9,0,0,1,7.38,3.16,13.09,13.09,0,0,1,2.56,8.49V165H346.55l0,.12a8.54,8.54,0,0,0,1.66,5,5.08,5.08,0,0,0,4.23,2,10.68,10.68,0,0,0,3.7-.58,11.77,11.77,0,0,0,3-1.64l1.72,3.8a11,11,0,0,1-3.57,2.18A13.82,13.82,0,0,1,352.07,176.73Zm-.61-22.14a3.9,3.9,0,0,0-3.26,1.7,8.77,8.77,0,0,0-1.58,4.33l0,.12h9.44v-.59a6.53,6.53,0,0,0-1.15-4A4.06,4.06,0,0,0,351.46,154.59Z" transform="translate(-67.66 -138.5)"/><path class="cls-1" d="M369.75,150.41l.3,3.72A8.92,8.92,0,0,1,373,151a7.35,7.35,0,0,1,4-1.11,7.2,7.2,0,0,1,5.8,2.45q2.09,2.44,2.08,7.62v16.23h-5.35V160.05a6.14,6.14,0,0,0-1.11-4.14,4.31,4.31,0,0,0-3.37-1.23,5.26,5.26,0,0,0-2.8.75,6,6,0,0,0-2,2.07v18.73h-5.35V150.41Z" transform="translate(-67.66 -138.5)"/><path class="cls-1" d="M399.45,172.08a4.66,4.66,0,0,0,3.3-1.25,4.06,4.06,0,0,0,1.34-3.12h4.84l.05.14a7.89,7.89,0,0,1-2.72,6.25,9.64,9.64,0,0,1-6.81,2.63,9.54,9.54,0,0,1-8.06-3.68,14.89,14.89,0,0,1-2.81-9.3v-.84a14.9,14.9,0,0,1,2.81-9.29,9.52,9.52,0,0,1,8.06-3.69,9.4,9.4,0,0,1,7,2.71,9.1,9.1,0,0,1,2.58,6.88l0,.15h-4.87a5.3,5.3,0,0,0-1.28-3.61,4.26,4.26,0,0,0-3.36-1.47,4.44,4.44,0,0,0-4.27,2.37,12.69,12.69,0,0,0-1.25,5.94v.84a12.73,12.73,0,0,0,1.25,6A4.46,4.46,0,0,0,399.45,172.08Z" transform="translate(-67.66 -138.5)"/><path class="cls-1" d="M422.67,176.73a10,10,0,0,1-8.07-3.59,13.91,13.91,0,0,1-3-9.22v-1a14.42,14.42,0,0,1,3-9.34,9.18,9.18,0,0,1,7.47-3.69,9,9,0,0,1,7.38,3.16,13.09,13.09,0,0,1,2.57,8.49V165H417.14l0,.12a8.54,8.54,0,0,0,1.66,5,5.08,5.08,0,0,0,4.24,2,10.62,10.62,0,0,0,3.69-.58,11.77,11.77,0,0,0,3-1.64l1.72,3.8a10.85,10.85,0,0,1-3.56,2.18A13.89,13.89,0,0,1,422.67,176.73Zm-.62-22.14a3.91,3.91,0,0,0-3.26,1.7,8.86,8.86,0,0,0-1.58,4.33l0,.12h9.44v-.59a6.53,6.53,0,0,0-1.15-4A4.05,4.05,0,0,0,422.05,154.59Z" transform="translate(-67.66 -138.5)"/></g></svg>